<?xml version="1.0" standalone="no"?>
<!DOCTYPE svg PUBLIC "-//W3C//DTD SVG 20010904//EN"
 "http://www.w3.org/TR/2001/REC-SVG-20010904/DTD/svg10.dtd">
<svg version="1.0" xmlns="http://www.w3.org/2000/svg"
 width="600.000000pt" height="600.000000pt" viewBox="0 0 600.000000 600.000000"
 preserveAspectRatio="xMidYMid meet">
<metadata>
Created by potrace 1.14, written by Peter Selinger 2001-2017
</metadata>
<g transform="translate(0.000000,600.000000) scale(0.100000,-0.100000)"
fill="#000000" stroke="none">
<path d="M3892 4439 c-167 -25 -388 -126 -511 -234 -103 -89 -225 -252 -251
-332 -7 -21 -16 -42 -20 -48 -5 -5 -13 -30 -20 -54 -9 -35 -9 -45 2 -52 27
-17 38 -8 54 48 21 73 83 192 130 251 96 122 279 265 372 291 16 5 41 15 58
24 90 45 324 73 472 55 338 -40 630 -246 783 -550 82 -162 112 -303 110 -518
-1 -187 -35 -351 -100 -479 -22 -42 -19 -51 13 -51 14 0 27 11 38 33 41 77 82
222 96 337 9 69 7 298 -2 365 -49 349 -276 662 -593 819 -79 39 -213 82 -293
94 -78 11 -263 12 -338 1z"/>
<path d="M4005 4349 c-3 -5 0 -102 4 -151 1 -3 10 -4 20 -1 17 4 19 14 18 83
0 71 -2 78 -19 77 -11 -1 -21 -4 -23 -8z"/>
<path d="M4076 4343 c-3 -8 -6 -43 -6 -78 0 -54 3 -63 20 -68 18 -5 20 0 21
46 1 29 2 64 3 79 3 30 -28 47 -38 21z"/>
<path d="M3877 4342 c-14 -3 -16 -10 -11 -40 4 -20 8 -45 10 -55 7 -39 16 -57
29 -57 20 0 22 15 10 85 -11 71 -13 73 -38 67z"/>
<path d="M3935 4308 c9 -80 17 -118 23 -118 15 1 27 16 26 35 -1 11 -2 44 -3
73 -1 49 -3 52 -26 52 -24 0 -25 -2 -20 -42z"/>
<path d="M4139 4323 c0 -15 -3 -49 -5 -76 -4 -37 -1 -49 11 -53 22 -9 23 -6
31 66 3 36 7 69 8 75 0 5 -9 11 -21 13 -19 3 -23 -1 -24 -25z"/>
<path d="M4209 4338 c-1 -2 -2 -14 -3 -28 -2 -14 -6 -46 -10 -71 -5 -37 -4
-48 8 -52 22 -9 30 11 43 111 5 38 4 42 -16 42 -11 0 -21 -1 -22 -2z"/>
<path d="M3798 4325 c-3 -3 2 -36 11 -73 12 -46 23 -68 34 -70 20 -4 21 18 3
93 -10 45 -31 67 -48 50z"/>
<path d="M4265 4259 c-11 -52 -13 -75 -5 -83 14 -14 26 4 41 58 17 62 16 90
-3 94 -13 2 -20 -12 -33 -69z"/>
<path d="M3741 4303 c-13 -9 -33 -17 -45 -18 -11 -1 -25 -3 -29 -4 -9 -1 -2
-31 13 -66 5 -11 14 -32 20 -47 5 -16 14 -28 20 -28 20 0 21 27 1 77 -21 53
-19 66 6 56 12 -5 12 -7 1 -14 -10 -7 -8 -9 6 -9 14 0 17 -6 14 -25 -3 -13 -1
-22 3 -19 5 3 11 -7 15 -21 4 -18 11 -24 21 -21 8 3 16 6 18 6 3 0 -35 142
-39 147 -1 2 -13 -5 -25 -14z"/>
<path d="M4330 4263 c-6 -27 -16 -58 -21 -70 -6 -18 -4 -25 10 -33 17 -9 22
-3 40 55 26 79 26 95 2 95 -14 0 -21 -12 -31 -47z"/>
<path d="M4403 4273 c-3 -10 -14 -40 -25 -66 -23 -59 -23 -67 0 -67 25 0 79
130 59 142 -19 12 -27 10 -34 -9z"/>
<path d="M3608 4249 c-16 -9 -15 -15 13 -72 38 -76 35 -72 53 -58 12 10 11 21
-12 76 -29 70 -29 69 -54 54z"/>
<path d="M4443 4203 c-13 -32 -27 -61 -29 -64 -2 -4 3 -12 11 -19 12 -10 20 0
49 58 30 59 33 71 20 76 -24 9 -24 10 -51 -51z"/>
<path d="M3550 4215 c-10 -12 -8 -23 11 -59 37 -70 47 -82 61 -68 8 8 3 27
-20 77 -17 36 -33 65 -36 65 -2 0 -9 -7 -16 -15z"/>
<path d="M4523 4218 c-5 -7 -21 -36 -36 -64 -22 -43 -25 -54 -13 -63 16 -13
20 -9 65 70 27 49 29 58 15 63 -21 8 -20 8 -31 -6z"/>
<path d="M4579 4183 c-9 -10 -28 -39 -42 -64 -23 -40 -25 -49 -12 -59 12 -10
17 -7 26 14 7 14 16 26 21 26 4 0 8 5 8 12 0 6 10 22 22 35 20 21 20 25 7 39
-14 13 -17 13 -30 -3z"/>
<path d="M3490 4175 c-11 -13 -7 -25 25 -70 38 -55 49 -63 60 -45 6 10 -48
114 -64 125 -5 2 -14 -2 -21 -10z"/>
<path d="M3895 4154 c-37 -6 -127 -34 -137 -43 -4 -3 90 -5 210 -3 119 1 214
1 211 -2 -2 -3 -110 -7 -239 -9 -212 -3 -239 -6 -280 -25 l-45 -20 178 4 c98
3 176 1 174 -3 -3 -5 -54 -10 -114 -11 -130 -3 -252 -11 -275 -18 -42 -13 -12
-20 72 -18 50 2 90 -1 90 -5 0 -4 -46 -8 -102 -10 -61 -1 -109 -7 -119 -15
-15 -10 17 -11 164 -8 100 2 180 2 177 -1 -3 -3 -72 -8 -155 -11 -145 -6 -189
-11 -210 -26 -5 -4 -33 -8 -60 -9 -28 -1 -60 -3 -73 -6 -13 -2 -20 0 -17 6 4
5 13 9 21 9 26 0 45 25 31 41 -7 7 -2 5 11 -5 41 -35 37 -6 -5 36 l-42 42 -28
-29 c-18 -18 -24 -29 -15 -32 6 -3 12 -9 12 -14 0 -6 -9 -5 -21 2 -20 10 -21
9 -16 -10 3 -12 1 -19 -3 -16 -8 5 -33 -28 -35 -45 0 -3 -8 -16 -17 -30 -9
-14 -19 -34 -22 -46 -6 -20 -3 -19 53 9 50 24 76 30 148 33 146 7 236 -25 308
-108 53 -63 64 -116 66 -315 2 -158 4 -173 20 -173 10 0 21 6 26 13 4 6 8 105
9 218 1 237 7 285 41 356 81 172 309 205 548 80 95 -50 134 -87 210 -202 59
-89 104 -213 108 -301 2 -29 6 -56 10 -60 3 -4 2 -15 -4 -25 -7 -14 -6 -19 3
-19 8 0 9 -3 3 -8 -6 -4 -12 -19 -13 -33 -1 -25 0 -26 22 -16 20 10 22 15 13
26 -10 12 -9 13 8 4 28 -15 57 7 57 44 0 116 -14 213 -31 213 -9 0 -78 59 -70
60 3 0 19 -11 35 -25 16 -14 33 -25 37 -25 15 0 -25 100 -41 100 -4 1 -20 12
-37 27 l-30 25 37 -21 37 -22 -12 30 c-6 16 -24 36 -41 45 -27 14 -28 15 -6
11 l25 -6 -21 18 c-12 10 -30 24 -40 30 -16 10 -14 11 11 2 49 -17 9 14 -45
36 -25 9 -56 22 -70 28 -14 5 -31 11 -38 13 -8 1 -17 5 -20 9 -13 13 61 -6
115 -31 l57 -25 -23 25 c-12 13 -54 34 -92 46 -38 12 -69 24 -69 26 0 7 62 -6
82 -17 10 -6 24 -8 31 -6 18 6 -44 35 -89 41 -21 3 -57 10 -79 16 -36 8 -34 9
20 4 32 -2 71 -7 85 -11 24 -6 24 -5 -6 20 -27 23 -43 27 -125 32 -116 8 -134
18 -22 13 44 -1 79 0 76 5 -9 14 -78 44 -92 39 -8 -2 -11 0 -7 6 8 14 -101 56
-175 68 -49 7 -289 13 -324 8z m485 -80 c0 -2 -30 -3 -67 -2 l-68 1 55 6 c52
6 80 4 80 -5z m-1009 -81 c13 -16 12 -17 -3 -4 -17 13 -22 21 -14 21 2 0 10
-8 17 -17z m458 13 c-10 -9 -79 -14 -79 -5 0 5 19 9 42 9 23 0 39 -2 37 -4z
m-90 -80 c-10 -11 -194 -17 -218 -8 -17 6 12 9 99 11 68 1 122 -1 119 -3z m44
-3 c-7 -2 -19 -2 -25 0 -7 3 -2 5 12 5 14 0 19 -2 13 -5z m-473 -17 c0 -2 -9
-6 -20 -9 -11 -3 -18 -1 -14 4 5 9 34 13 34 5z m516 -25 c-2 -3 -48 -7 -103
-9 -54 -1 -92 1 -86 6 15 9 194 12 189 3z m-22 -50 c3 -4 -22 -7 -54 -7 -32 0
-57 4 -54 8 6 9 103 8 108 -1z m856 -1 c24 -15 7 -18 -25 -4 -23 10 -25 13
-10 13 11 1 27 -3 35 -9z m-897 -37 c-7 -2 -19 -2 -25 0 -7 3 -2 5 12 5 14 0
19 -2 13 -5z m932 -13 c3 -6 -1 -7 -9 -4 -18 7 -21 14 -7 14 6 0 13 -4 16 -10z
m-895 -26 c0 -2 -9 -4 -20 -4 -11 0 -20 4 -20 9 0 5 9 7 20 4 11 -3 20 -7 20
-9z"/>
<path d="M4605 4108 c-45 -62 -50 -74 -34 -84 7 -4 20 2 31 17 11 13 31 37 44
53 27 34 30 51 10 59 -10 4 -28 -12 -51 -45z"/>
<path d="M1926 4120 c-37 -38 -38 -75 -3 -115 31 -37 84 -41 123 -10 23 18 28
30 28 65 0 35 -6 47 -30 67 -38 30 -86 28 -118 -7z"/>
<path d="M3432 4127 c-16 -19 75 -122 94 -106 11 9 5 21 -28 65 -43 57 -49 61
-66 41z"/>
<path d="M4647 4061 c-20 -26 -37 -53 -37 -59 0 -21 19 -23 37 -4 66 68 81 90
70 101 -19 19 -32 12 -70 -38z"/>
<path d="M1525 4082 c-25 -6 -65 -47 -66 -70 -4 -56 31 -106 82 -117 51 -11
109 36 109 89 0 64 -62 112 -125 98z"/>
<path d="M3380 4075 c-7 -9 -11 -16 -9 -18 3 -1 26 -22 52 -47 35 -33 50 -41
58 -33 9 9 2 24 -27 62 -42 54 -54 60 -74 36z"/>
<path d="M4696 4018 c-50 -56 -53 -63 -32 -71 14 -6 106 72 106 90 0 6 -6 16
-14 22 -11 9 -23 1 -60 -41z"/>
<path d="M4737 3964 c-41 -37 -47 -47 -37 -60 11 -13 16 -12 39 3 14 9 32 22
39 30 7 7 21 17 30 22 13 8 15 14 6 27 -17 28 -26 26 -77 -22z"/>
<path d="M4062 3959 c-36 -11 -116 -84 -107 -99 3 -5 0 -12 -6 -16 -8 -4 -7
-9 2 -15 11 -6 10 -9 -4 -15 -23 -8 -23 -37 1 -30 28 8 64 15 117 21 55 7 59
-1 5 -10 -19 -3 -60 -10 -91 -16 l-57 -11 1 -48 c1 -38 4 -46 14 -38 7 6 10
14 7 19 -3 5 1 7 8 4 7 -2 27 7 43 21 18 16 23 24 12 20 -11 -4 -16 -2 -12 5
4 6 13 8 21 5 7 -3 34 2 60 11 62 21 190 13 257 -16 26 -11 72 -44 100 -73 67
-68 97 -129 101 -208 1 -14 6 -31 10 -39 6 -9 5 -12 -1 -8 -6 4 -13 -2 -16
-13 -3 -11 -1 -20 4 -20 5 0 2 -8 -6 -17 -9 -10 -27 -33 -41 -50 -14 -18 -57
-54 -95 -79 -78 -53 -137 -113 -120 -123 15 -10 81 -1 81 10 0 5 23 31 52 57
28 26 78 73 110 105 65 63 87 76 40 23 -17 -19 -34 -41 -39 -48 -4 -8 -21 -24
-36 -35 -50 -39 -107 -93 -109 -104 -2 -7 13 -12 35 -13 20 0 37 2 37 6 0 4
26 33 58 66 57 59 152 123 152 103 0 -6 -4 -11 -9 -11 -21 0 -187 -148 -177
-158 2 -2 18 -4 35 -4 24 -1 38 8 66 40 20 22 60 59 90 82 l53 41 -3 127 c-2
111 -6 135 -29 194 -30 72 -32 74 -144 104 -34 9 -65 20 -67 24 -5 9 45 -2
118 -24 26 -8 47 -11 47 -7 0 4 -15 24 -32 44 -27 30 -43 39 -88 47 l-55 9 53
-4 54 -4 -29 27 c-103 101 -237 153 -382 151 -31 0 -71 -5 -89 -10z m38 -24
c-66 -25 -99 -26 -39 -1 56 22 63 24 84 25 11 0 -9 -11 -45 -24z m130 -10
c-79 -16 -218 -50 -244 -61 -14 -5 -17 -4 -12 4 4 7 15 12 24 12 13 0 14 2 4
9 -11 7 -10 9 3 14 10 5 14 3 9 -5 -5 -8 1 -9 22 -3 80 22 193 43 224 43 25 0
17 -4 -30 -13z m60 -30 c-36 -7 -67 -12 -69 -10 -6 7 64 23 99 23 25 0 17 -4
-30 -13z m138 -10 c-8 -9 -88 -12 -88 -3 0 4 21 8 47 8 25 0 44 -2 41 -5z
m-38 -50 c0 -1 -12 -2 -26 -2 -17 0 -22 2 -13 7 10 7 39 3 39 -5z m-415 -104
c-3 -6 -14 -11 -23 -11 -15 1 -15 2 2 15 21 16 32 13 21 -4z"/>
<path d="M4787 3912 c-61 -40 -61 -40 -47 -62 8 -13 18 -10 69 15 63 31 69 39
48 67 -12 15 -18 14 -70 -20z"/>
<path d="M4838 3854 c-27 -13 -48 -21 -48 -17 0 13 -20 -21 -20 -35 0 -24 27
-23 84 3 60 27 63 32 44 57 -12 15 -17 14 -60 -8z"/>
<path d="M3383 3800 c-18 -4 -33 -6 -33 -4 0 12 -87 -46 -104 -69 -20 -27 -21
-42 -22 -253 -2 -186 -4 -228 -18 -248 -20 -32 -47 -27 -67 11 -12 25 -16 70
-17 219 -1 103 -4 189 -6 192 -5 4 -91 6 -148 3 l-28 -1 1 -202 c0 -112 4
-219 9 -238 16 -59 77 -83 212 -83 117 1 180 27 220 91 20 33 22 48 24 242 1
169 5 212 18 238 22 43 63 53 88 22 21 -26 20 -8 22 -330 l1 -255 93 -3 93 -3
-1 221 c-2 237 -10 291 -55 358 -24 36 -75 74 -112 86 -33 11 -134 14 -170 6z"/>
<path d="M4860 3784 c-66 -30 -60 -25 -54 -51 5 -19 8 -20 47 -8 23 7 54 18
69 25 23 11 25 15 16 36 -6 13 -14 24 -17 24 -3 0 -31 -12 -61 -26z"/>
<path d="M964 3788 c-109 -12 -189 -63 -225 -144 -32 -71 -27 -119 17 -184 57
-85 26 -170 -61 -170 -24 0 -25 -2 -25 -81 l0 -81 70 4 c90 5 142 39 182 118
34 68 36 125 7 206 -40 111 -31 237 20 273 35 24 70 20 98 -13 23 -27 23 -28
23 -307 l0 -279 90 0 90 0 -1 253 c-1 267 4 299 49 340 28 26 79 25 105 -2 21
-21 22 -30 27 -304 l5 -282 87 0 88 -1 -1 231 c0 242 1 260 26 311 50 106 174
72 190 -52 2 -16 4 -419 5 -896 l0 -867 93 2 92 2 0 870 c0 814 -1 873 -18
917 -10 26 -32 60 -49 76 -86 85 -248 90 -335 9 l-22 -20 -35 31 c-75 66 -242
58 -314 -15 -15 -14 -17 -14 -25 5 -5 11 -21 25 -35 32 -38 17 -147 26 -218
18z"/>
<path d="M2578 3774 c-2 -1 -15 -4 -28 -6 -14 -2 -42 -13 -63 -25 -29 -17 -39
-32 -49 -67 -10 -39 -14 -43 -30 -35 -39 21 -216 5 -238 -21 -3 -3 -19 -16
-37 -28 -18 -13 -43 -47 -59 -80 -49 -103 -29 -228 47 -302 74 -70 138 -83
399 -78 184 3 197 4 236 27 77 44 81 60 79 351 -1 140 -3 258 -4 262 -1 7
-247 9 -253 2z m78 -266 c-2 -255 -7 -275 -81 -309 -58 -26 -168 -20 -232 13
-94 50 -142 147 -118 241 22 86 89 130 192 129 47 -1 49 1 78 73 17 43 25 51
60 61 22 7 54 13 71 13 l32 1 -2 -222z"/>
<path d="M2393 3557 c-61 -33 -84 -89 -64 -157 21 -72 103 -103 169 -65 34 21
61 69 57 105 -1 14 -3 33 -4 42 -2 37 -76 88 -123 86 -9 -1 -25 -6 -35 -11z"/>
<path d="M4878 3718 c-55 -18 -57 -20 -46 -43 12 -26 19 -26 86 -6 35 11 37
11 51 11 6 0 6 12 0 30 -12 34 -14 34 -91 8z"/>
<path d="M4170 3717 c0 -5 -9 -6 -19 -2 -10 3 -25 0 -33 -8 -7 -7 -18 -12 -25
-10 -6 2 -14 0 -17 -5 -8 -14 67 -42 107 -41 30 1 28 2 -18 17 -27 9 -43 17
-34 19 9 2 41 -5 70 -17 30 -11 65 -20 79 -20 14 0 32 -5 40 -11 12 -8 7 -9
-17 -6 -18 2 -33 0 -33 -5 0 -4 14 -8 30 -8 17 0 45 -7 61 -16 32 -16 65 -12
54 7 -4 6 -14 8 -22 5 -8 -3 -11 -1 -8 4 3 6 -1 10 -10 10 -10 0 -13 5 -9 13
5 7 1 7 -12 -3 -10 -8 -16 -10 -11 -5 4 5 -5 15 -20 22 -27 12 -27 12 12 8 22
-2 32 -2 23 1 -10 3 -18 10 -18 16 0 5 -6 8 -14 5 -8 -3 -20 1 -27 9 -8 10
-15 11 -24 4 -10 -8 -15 -8 -21 1 -5 8 -3 10 7 4 10 -5 11 -5 4 3 -12 12 -95
21 -95 9z m117 -53 c-3 -3 -12 -4 -19 -1 -8 3 -5 6 6 6 11 1 17 -2 13 -5z"/>
<path d="M4045 3661 c-3 -6 4 -16 17 -21 20 -9 17 -10 -14 -6 -21 3 -40 0 -44
-5 -9 -15 -2 -18 47 -25 90 -12 118 -24 45 -19 -38 3 -79 8 -91 11 -15 4 -24
0 -28 -10 -5 -14 3 -16 55 -16 34 0 58 -3 54 -7 -3 -4 -30 -7 -58 -7 -46 -1
-54 -5 -65 -26 -17 -34 -17 -84 0 -74 7 4 6 -1 -3 -12 -9 -10 -15 -28 -15 -39
0 -25 25 -25 133 0 31 7 54 25 32 25 -8 0 -8 6 0 20 10 18 6 19 -52 23 l-63 3
60 2 60 2 25 47 c18 34 38 53 70 70 44 23 69 50 34 36 -13 -5 -15 -3 -9 8 7
12 6 12 -7 1 -16 -12 -64 -5 -154 23 -12 4 -25 2 -29 -4z m125 -41 c32 -9 31
-9 -15 -5 -27 3 -53 9 -59 15 -10 10 12 7 74 -10z"/>
<path d="M4969 3666 c-2 -3 -16 -7 -29 -9 -89 -16 -101 -24 -81 -56 6 -10 20
-12 47 -7 95 16 95 16 88 39 -7 25 -18 39 -25 33z"/>
<path d="M4260 3580 c-12 -8 -9 -9 12 -6 32 5 86 -8 112 -27 14 -10 20 -31 23
-82 5 -59 3 -69 -13 -78 -27 -16 -42 -17 -77 -4 -59 20 -75 52 -50 100 17 33
63 37 93 7 19 -19 20 -19 20 -2 0 38 -38 66 -88 68 -26 0 -56 -2 -67 -5 -17
-4 -15 -6 10 -12 l30 -7 -34 -1 c-24 -1 -32 -5 -28 -15 3 -8 -1 -17 -9 -20
-11 -4 -15 -18 -13 -48 3 -55 25 -94 67 -118 36 -21 129 -40 102 -21 -12 8 -8
11 18 11 22 0 32 5 32 15 0 8 6 15 14 15 47 0 70 121 38 202 -13 33 -19 38
-36 33 -25 -8 -37 -8 -96 0 -26 3 -51 1 -60 -5z"/>
<path d="M4936 3583 c-2 -2 -18 -5 -35 -5 -28 -1 -32 -4 -29 -27 3 -24 6 -26
48 -24 75 4 92 11 88 36 -2 17 -10 22 -35 23 -18 1 -35 -1 -37 -3z"/>
<path d="M4908 3512 c-22 -3 -28 -9 -28 -28 0 -23 2 -24 71 -24 l70 0 -3 28
c-3 24 -7 27 -43 27 -22 0 -52 -1 -67 -3z"/>
<path d="M4299 3471 c-19 -16 -22 -23 -14 -37 17 -27 52 -36 70 -17 20 20 16
42 -11 60 -19 12 -24 11 -45 -6z"/>
<path d="M4891 3390 c0 -34 4 -60 10 -60 15 0 50 20 81 46 15 12 33 24 39 26
7 2 9 12 5 26 -7 20 -14 22 -71 22 l-63 0 -1 -60z"/>
<path d="M4023 3382 c-61 -13 -73 -19 -74 -36 -4 -81 -4 -116 1 -133 5 -20 6
-20 59 -3 36 12 69 33 98 63 41 41 44 46 33 68 -7 13 -13 25 -14 26 -1 1 -24
-4 -51 -12 -26 -8 -55 -15 -64 -14 -9 0 12 9 47 20 34 11 62 24 62 29 0 12 -5
12 -97 -8z"/>
<path d="M4865 3285 c-66 -34 -119 -67 -118 -72 1 -6 -6 -9 -16 -6 -10 3 -22
-1 -26 -8 -6 -8 -4 -10 5 -4 8 5 11 4 7 -2 -4 -6 -19 -16 -35 -22 -15 -6 -33
-20 -39 -30 -11 -17 -9 -19 23 -19 27 0 44 9 78 43 51 49 131 105 151 105 8 0
16 4 20 10 3 5 12 7 20 3 11 -4 14 0 9 13 -5 16 -4 16 5 4 9 -13 14 -11 37 11
48 48 3 39 -121 -26z"/>
<path d="M5003 3302 c-11 -15 -44 -40 -74 -56 l-54 -28 30 26 30 27 -54 -26
c-29 -15 -65 -38 -80 -51 -14 -13 -29 -24 -32 -24 -4 0 -14 -11 -23 -25 -16
-25 -16 -25 12 -25 19 0 50 17 93 50 35 27 69 50 76 50 6 0 13 4 15 8 2 4 19
18 39 30 22 13 39 32 41 47 3 14 4 25 3 25 0 0 -10 -12 -22 -28z"/>
<path d="M4115 3259 c-45 -46 -61 -56 -99 -63 -49 -9 -64 -17 -69 -36 -8 -31
4 -31 42 0 19 17 40 30 45 30 16 0 134 60 146 75 13 16 6 35 -14 35 -6 0 -30
-18 -51 -41z"/>
<path d="M4165 3239 c-16 -16 -35 -29 -41 -29 -19 0 -154 -71 -154 -80 0 -5
22 -8 50 -6 33 2 47 -1 43 -8 -4 -6 -2 -7 3 -3 5 5 9 12 9 17 0 5 37 35 83 68
59 43 78 62 66 66 -23 9 -26 8 -59 -25z"/>
<path d="M4677 3246 c-19 -15 -24 -31 -4 -20 7 5 6 1 -3 -10 -8 -10 -16 -14
-18 -7 -4 12 -42 -8 -42 -23 0 -6 5 -5 12 2 7 7 16 12 21 12 16 0 -4 -20 -38
-36 -38 -18 -54 -44 -27 -44 22 0 126 96 118 108 -3 6 -1 12 6 14 7 3 8 7 2
10 -5 4 -17 1 -27 -6z"/>
<path d="M4980 3236 c-19 -12 -63 -41 -97 -62 -35 -21 -63 -42 -63 -46 0 -13
13 -8 46 15 17 12 56 39 87 59 30 20 58 41 61 47 10 16 5 14 -34 -13z"/>
<path d="M4184 3198 c-38 -27 -76 -53 -84 -58 -24 -14 -3 -24 25 -12 15 7 25
8 25 2 0 -6 22 -10 49 -10 40 0 51 4 56 19 3 11 26 38 50 60 25 23 45 42 45
44 0 1 -22 3 -48 3 -43 1 -57 -5 -118 -48z"/>
<path d="M4972 3195 c-16 -14 -33 -25 -36 -25 -4 0 -19 -11 -33 -24 -36 -34
-8 -28 45 9 24 17 50 35 59 41 10 7 12 13 5 18 -6 3 -24 -5 -40 -19z"/>
<path d="M4965 3145 c-16 -13 -26 -24 -22 -25 15 0 67 31 67 40 0 16 -13 12
-45 -15z"/>
<path d="M1406 3083 c-2 -2 -18 -6 -36 -8 -99 -13 -180 -126 -180 -251 0 -50
-2 -54 -27 -60 -83 -18 -106 -27 -144 -57 -134 -102 -109 -303 48 -377 40 -19
65 -23 146 -24 l99 0 -8 -80 c-16 -176 -9 -250 30 -330 47 -95 143 -167 254
-188 60 -11 339 -18 366 -8 11 4 -7 16 -53 38 -38 18 -83 47 -100 64 -28 29
-38 32 -97 34 -86 4 -159 38 -193 91 -24 36 -25 45 -25 207 -1 132 2 170 12
174 8 3 60 5 115 6 l102 1 0 315 c1 173 -3 331 -8 350 -14 56 -50 86 -117 97
-39 6 -179 11 -184 6z m62 -44 c57 -19 61 -41 61 -383 1 -295 0 -304 -19 -309
-17 -4 -20 0 -21 26 -6 235 -16 269 -93 328 -28 21 -56 43 -62 49 -13 10 -12
163 1 222 14 63 65 89 133 67z m-223 -365 c57 -66 72 -111 73 -228 l1 -98 -52
6 c-87 9 -123 23 -160 60 -73 73 -54 244 31 291 44 23 64 17 107 -31z"/>
<path d="M4783 3035 c-50 -21 -67 -73 -42 -128 11 -25 62 -54 89 -52 8 1 23 3
32 3 24 3 55 38 62 73 7 38 -7 74 -39 95 -34 22 -64 25 -102 9z"/>
<path d="M2355 3015 c-94 -16 -168 -50 -204 -92 -95 -111 -11 -307 131 -307
74 0 160 86 160 160 0 54 -16 60 -36 13 -30 -67 -104 -83 -169 -37 -29 21 -45
52 -54 102 -11 69 108 123 196 88 41 -16 57 -32 73 -69 16 -39 15 -32 17 -318
l1 -256 88 3 87 3 0 280 c-1 296 -4 323 -49 373 -48 54 -135 74 -241 57z"/>
<path d="M3217 3014 c-1 -2 -18 -6 -37 -9 -48 -8 -114 -43 -145 -74 -32 -34
-66 -104 -55 -114 19 -20 54 -1 80 42 28 48 84 83 153 95 37 7 38 7 31 -21 -4
-15 -7 -30 -7 -33 -1 -3 2 -23 7 -44 5 -28 4 -41 -6 -47 -19 -12 7 -35 53 -47
70 -19 167 42 170 106 5 109 -35 145 -163 147 -43 1 -79 0 -81 -1z"/>
<path d="M3546 3011 c-1 -3 -2 -22 -2 -41 l1 -34 100 -2 c113 -1 154 -16 184
-65 17 -28 19 -54 19 -247 -1 -120 -5 -225 -9 -234 -27 -51 -67 -55 -97 -10
-14 21 -17 57 -18 211 -1 102 -2 188 -3 191 0 3 -40 5 -88 5 l-88 0 1 -196 0
-197 27 -35 c36 -48 82 -62 202 -61 116 1 161 13 199 53 49 51 54 85 52 321
-3 217 -7 246 -42 286 -45 50 -77 58 -262 59 -95 1 -174 -1 -176 -4z"/>
<path d="M4250 2996 c-51 -14 -127 -55 -134 -72 -3 -8 27 -10 100 -9 118 3
175 -12 193 -51 7 -15 11 -122 11 -294 l1 -270 92 0 92 0 0 283 c-1 155 -5
293 -10 307 -14 42 -47 79 -89 98 -49 23 -187 27 -256 8z"/>
<path d="M2885 2769 c-64 -19 -114 -59 -143 -113 -21 -40 -23 -52 -24 -107 -2
-120 78 -205 222 -236 45 -10 235 -8 298 3 190 32 266 189 163 336 -14 21 -39
43 -54 49 -33 14 -120 19 -158 8 -19 -5 -29 -2 -37 11 -17 28 -95 60 -153 63
-32 2 -79 -4 -114 -14z m89 -86 c-29 -56 -10 -149 36 -173 31 -17 86 -15 114
4 40 26 57 60 58 116 0 51 0 51 30 48 53 -5 73 -45 73 -141 0 -63 -4 -88 -19
-109 -29 -44 -80 -70 -145 -73 -134 -8 -237 74 -246 194 -4 60 26 129 65 148
41 21 51 17 34 -14z"/>
<path d="M4150 2780 c-4 -3 -8 -112 -8 -243 l1 -237 89 0 c84 0 88 1 89 23 3
105 -1 450 -6 455 -7 8 -153 10 -165 2z"/>
<path d="M4717 2618 c1 -90 2 -198 2 -240 1 -76 1 -77 29 -80 15 -2 55 -2 89
0 l61 4 -1 236 -2 237 -90 3 -90 3 2 -163z"/>
<path d="M2802 2258 c-64 -19 -122 -71 -122 -108 0 -21 -32 -23 -408 -22 -81
0 -94 -2 -103 -19 -9 -18 -2 -19 244 -19 l255 0 12 -30 c15 -37 37 -50 82 -50
47 0 74 22 107 88 36 70 58 91 102 95 38 4 75 -11 103 -42 18 -20 18 -21 -7
-50 -59 -70 7 -170 95 -145 47 14 90 72 90 125 1 75 -1 84 -34 119 -57 57
-102 71 -250 74 -80 2 -121 -2 -166 -16z"/>
<path d="M4388 2264 c-2 -2 -13 -5 -24 -7 -82 -12 -110 -131 -45 -189 111 -99
253 61 148 166 -17 17 -72 38 -79 30z"/>
<path d="M3560 2220 c-151 -41 -176 -197 -43 -266 145 -77 304 -34 326 87 6
30 -25 105 -51 126 -54 44 -168 70 -232 53z m98 -63 c57 -28 64 -123 13 -169
-34 -31 -61 -30 -127 3 -71 36 -93 122 -42 161 36 27 108 30 156 5z"/>
</g>
</svg>
